<mxfile host="Electron" agent="Mozilla/5.0 (Windows NT 10.0; Win64; x64) AppleWebKit/537.36 (KHTML, like Gecko) draw.io/26.0.9 Chrome/128.0.6613.186 Electron/32.2.5 Safari/537.36" version="26.0.9" pages="2">
  <diagram name="Page-1" id="KpjBxrTiht_Qvs7KwJDv">
    <mxGraphModel dx="1034" dy="557" grid="1" gridSize="10" guides="1" tooltips="1" connect="1" arrows="1" fold="1" page="1" pageScale="1" pageWidth="850" pageHeight="1100" math="0" shadow="0">
      <root>
        <mxCell id="0" />
        <mxCell id="1" parent="0" />
        <mxCell id="08p3rzBNdtEZxl52uitY-1" value="" style="rounded=0;whiteSpace=wrap;html=1;gradientColor=default;fillColor=none;dashed=1;strokeColor=#A9A9A9;" parent="1" vertex="1">
          <mxGeometry x="5" y="147.5" width="140" height="342.5" as="geometry" />
        </mxCell>
        <mxCell id="08p3rzBNdtEZxl52uitY-2" value="High Level Architecture" style="text;html=1;align=center;verticalAlign=middle;whiteSpace=wrap;rounded=0;fontSize=24;fontStyle=1" parent="1" vertex="1">
          <mxGeometry x="50" y="20" width="290" height="60" as="geometry" />
        </mxCell>
        <mxCell id="08p3rzBNdtEZxl52uitY-3" value="DataWareHouse" style="rounded=1;whiteSpace=wrap;html=1;fillColor=none;strokeColor=none;" parent="1" vertex="1">
          <mxGeometry x="345" y="107.5" width="110" height="40" as="geometry" />
        </mxCell>
        <mxCell id="08p3rzBNdtEZxl52uitY-4" value="" style="rounded=0;whiteSpace=wrap;html=1;gradientColor=default;fillColor=none;dashed=1;strokeColor=#ADADAD;" parent="1" vertex="1">
          <mxGeometry x="170" y="150" width="460" height="335" as="geometry" />
        </mxCell>
        <mxCell id="08p3rzBNdtEZxl52uitY-5" value="" style="rounded=0;whiteSpace=wrap;html=1;gradientColor=default;fillColor=none;dashed=1;strokeColor=#A9A9A9;" parent="1" vertex="1">
          <mxGeometry x="660" y="150" width="160" height="330" as="geometry" />
        </mxCell>
        <mxCell id="08p3rzBNdtEZxl52uitY-6" value="Consume" style="rounded=1;whiteSpace=wrap;html=1;fillColor=none;strokeColor=none;" parent="1" vertex="1">
          <mxGeometry x="699.63" y="130" width="70" height="30" as="geometry" />
        </mxCell>
        <mxCell id="08p3rzBNdtEZxl52uitY-7" value="Sources" style="rounded=1;whiteSpace=wrap;html=1;fillColor=none;gradientColor=none;strokeColor=none;dashed=1;" parent="1" vertex="1">
          <mxGeometry x="40" y="130" width="70" height="30" as="geometry" />
        </mxCell>
        <mxCell id="08p3rzBNdtEZxl52uitY-9" value="Bronze Layer" style="rounded=0;whiteSpace=wrap;html=1;fillColor=#ffe6cc;strokeColor=#d79b00;" parent="1" vertex="1">
          <mxGeometry x="200" y="161.88" width="100" height="20" as="geometry" />
        </mxCell>
        <mxCell id="08p3rzBNdtEZxl52uitY-10" value="" style="rounded=0;whiteSpace=wrap;html=1;gradientColor=default;fillColor=none;strokeColor=#FFB366;" parent="1" vertex="1">
          <mxGeometry x="180" y="180" width="140" height="300" as="geometry" />
        </mxCell>
        <mxCell id="08p3rzBNdtEZxl52uitY-11" value="Silver Layer" style="rounded=0;whiteSpace=wrap;html=1;fillColor=#f5f5f5;strokeColor=#666666;fontColor=#333333;" parent="1" vertex="1">
          <mxGeometry x="340" y="160" width="100" height="20" as="geometry" />
        </mxCell>
        <mxCell id="08p3rzBNdtEZxl52uitY-13" value="" style="rounded=0;whiteSpace=wrap;html=1;gradientColor=default;fillColor=none;strokeColor=#AEAEAE;" parent="1" vertex="1">
          <mxGeometry x="330" y="181.88" width="137.5" height="298.12" as="geometry" />
        </mxCell>
        <mxCell id="08p3rzBNdtEZxl52uitY-14" value="Gold Layer" style="rounded=0;whiteSpace=wrap;html=1;fillColor=#fff2cc;strokeColor=#d6b656;" parent="1" vertex="1">
          <mxGeometry x="500" y="160" width="100" height="20" as="geometry" />
        </mxCell>
        <mxCell id="08p3rzBNdtEZxl52uitY-15" value="" style="rounded=0;whiteSpace=wrap;html=1;fillColor=none;strokeColor=#FFB570;" parent="1" vertex="1">
          <mxGeometry x="480" y="181.88" width="130" height="296.25" as="geometry" />
        </mxCell>
        <mxCell id="08p3rzBNdtEZxl52uitY-16" value="CRM" style="image;aspect=fixed;html=1;points=[];align=center;fontSize=12;image=img/lib/azure2/general/Folder_Blank.svg;" parent="1" vertex="1">
          <mxGeometry x="56.519999999999996" y="210" width="36.96" height="30" as="geometry" />
        </mxCell>
        <mxCell id="08p3rzBNdtEZxl52uitY-17" value="" style="image;aspect=fixed;html=1;points=[];align=center;fontSize=12;image=img/lib/azure2/general/File.svg;" parent="1" vertex="1">
          <mxGeometry x="77.25" y="230" width="16.23" height="20" as="geometry" />
        </mxCell>
        <mxCell id="08p3rzBNdtEZxl52uitY-18" value="ERP" style="image;aspect=fixed;html=1;points=[];align=center;fontSize=12;image=img/lib/azure2/general/Folder_Blank.svg;" parent="1" vertex="1">
          <mxGeometry x="56.519999999999996" y="290" width="36.96" height="30" as="geometry" />
        </mxCell>
        <mxCell id="08p3rzBNdtEZxl52uitY-19" value="" style="image;aspect=fixed;html=1;points=[];align=center;fontSize=12;image=img/lib/azure2/general/File.svg;" parent="1" vertex="1">
          <mxGeometry x="77.25" y="308.75" width="16.23" height="20" as="geometry" />
        </mxCell>
        <mxCell id="08p3rzBNdtEZxl52uitY-24" value="" style="endArrow=none;html=1;rounded=0;strokeColor=#7B7B7B;" parent="1" edge="1">
          <mxGeometry width="50" height="50" relative="1" as="geometry">
            <mxPoint x="42.5" y="360" as="sourcePoint" />
            <mxPoint x="107.5" y="360" as="targetPoint" />
            <Array as="points">
              <mxPoint x="67.5" y="360" />
            </Array>
          </mxGeometry>
        </mxCell>
        <mxCell id="08p3rzBNdtEZxl52uitY-27" value="&lt;b&gt;Object Type&lt;/b&gt; : CSV Files&lt;br&gt;&lt;b&gt;Interface&lt;/b&gt; : Files&amp;nbsp;&lt;span style=&quot;color: rgba(0, 0, 0, 0); font-family: monospace; font-size: 0px; text-align: start; text-wrap: nowrap;&quot;&gt;%3CmxGraphModel%3E%3Croot%3E%3CmxCell%20id%3D%220%22%2F%3E%3CmxCell%20id%3D%221%22%20parent%3D%220%22%2F%3E%3CmxCell%20id%3D%222%22%20value%3D%22%22%20style%3D%22endArrow%3Dnone%3Bhtml%3D1%3Brounded%3D0%3BstrokeColor%3D%23666666%3BfillColor%3D%23f5f5f5%3B%22%20edge%3D%221%22%20parent%3D%221%22%3E%3CmxGeometry%20width%3D%2250%22%20height%3D%2250%22%20relative%3D%221%22%20as%3D%22geometry%22%3E%3CmxPoint%20x%3D%22330%22%20y%3D%22370%22%20as%3D%22sourcePoint%22%2F%3E%3CmxPoint%20x%3D%22395%22%20y%3D%22370%22%20as%3D%22targetPoint%22%2F%3E%3CArray%20as%3D%22points%22%2F%3E%3C%2FmxGeometry%3E%3C%2FmxCell%3E%3C%2Froot%3E%3C%2FmxGraphModel%3E&lt;/span&gt;in Folder" style="text;html=1;align=center;verticalAlign=middle;whiteSpace=wrap;rounded=0;fontSize=10;fontStyle=0" parent="1" vertex="1">
          <mxGeometry x="15" y="390" width="120" height="30" as="geometry" />
        </mxCell>
        <mxCell id="08p3rzBNdtEZxl52uitY-30" value="" style="shape=singleArrow;whiteSpace=wrap;html=1;fillColor=#dae8fc;strokeColor=#6c8ebf;" parent="1" vertex="1">
          <mxGeometry x="610" y="282.5" width="60" height="45" as="geometry" />
        </mxCell>
        <mxCell id="08p3rzBNdtEZxl52uitY-31" value="" style="shape=singleArrow;whiteSpace=wrap;html=1;fillColor=#dae8fc;strokeColor=#6c8ebf;" parent="1" vertex="1">
          <mxGeometry x="135" y="291.25" width="60" height="45" as="geometry" />
        </mxCell>
        <mxCell id="08p3rzBNdtEZxl52uitY-32" value="" style="shape=singleArrow;whiteSpace=wrap;html=1;fillColor=#dae8fc;strokeColor=#6c8ebf;" parent="1" vertex="1">
          <mxGeometry x="290" y="291.25" width="40" height="28.75" as="geometry" />
        </mxCell>
        <mxCell id="08p3rzBNdtEZxl52uitY-34" value="" style="shape=singleArrow;whiteSpace=wrap;html=1;fillColor=#dae8fc;strokeColor=#6c8ebf;" parent="1" vertex="1">
          <mxGeometry x="440" y="290.63" width="40" height="28.75" as="geometry" />
        </mxCell>
        <mxCell id="08p3rzBNdtEZxl52uitY-36" value="" style="html=1;verticalLabelPosition=bottom;align=center;labelBackgroundColor=#ffffff;verticalAlign=top;strokeWidth=2;strokeColor=#d79b00;shadow=0;dashed=0;shape=mxgraph.ios7.icons.data;fillColor=#ffe6cc;" parent="1" vertex="1">
          <mxGeometry x="238" y="210.9" width="24" height="29.099999999999998" as="geometry" />
        </mxCell>
        <mxCell id="08p3rzBNdtEZxl52uitY-37" value="" style="html=1;verticalLabelPosition=bottom;align=center;labelBackgroundColor=#ffffff;verticalAlign=top;strokeWidth=2;strokeColor=#6c8ebf;shadow=0;dashed=0;shape=mxgraph.ios7.icons.data;fillColor=#dae8fc;" parent="1" vertex="1">
          <mxGeometry x="386.75" y="210" width="24" height="29.099999999999998" as="geometry" />
        </mxCell>
        <mxCell id="08p3rzBNdtEZxl52uitY-38" value="" style="html=1;verticalLabelPosition=bottom;align=center;labelBackgroundColor=#ffffff;verticalAlign=top;strokeWidth=2;strokeColor=#d6b656;shadow=0;dashed=0;shape=mxgraph.ios7.icons.data;fillColor=#fff2cc;" parent="1" vertex="1">
          <mxGeometry x="525" y="209.99999999999997" width="24" height="29.099999999999998" as="geometry" />
        </mxCell>
        <mxCell id="08p3rzBNdtEZxl52uitY-39" value="Raw&amp;nbsp;&lt;span style=&quot;color: rgba(0, 0, 0, 0); font-family: monospace; font-size: 0px; text-align: start; text-wrap: nowrap;&quot;&gt;%3CmxGraphModel%3E%3Croot%3E%3CmxCell%20id%3D%220%22%2F%3E%3CmxCell%20id%3D%221%22%20parent%3D%220%22%2F%3E%3CmxCell%20id%3D%222%22%20value%3D%22%22%20style%3D%22html%3D1%3BverticalLabelPosition%3Dbottom%3Balign%3Dcenter%3BlabelBackgroundColor%3D%23ffffff%3BverticalAlign%3Dtop%3BstrokeWidth%3D2%3BstrokeColor%3D%236c8ebf%3Bshadow%3D0%3Bdashed%3D0%3Bshape%3Dmxgraph.ios7.icons.data%3BfillColor%3D%23dae8fc%3B%22%20vertex%3D%221%22%20parent%3D%221%22%3E%3CmxGeometry%20x%3D%22353%22%20y%3D%22279.65%22%20width%3D%2224%22%20height%3D%2229.099999999999998%22%20as%3D%22geometry%22%2F%3E%3C%2FmxCell%3E%3C%2Froot%3E%3C%2FmxGraphModel%3E&lt;/span&gt;&lt;span style=&quot;color: rgba(0, 0, 0, 0); font-family: monospace; font-size: 0px; text-align: start; text-wrap: nowrap;&quot;&gt;%3CmxGraphModel%3E%3Croot%3E%3CmxCell%20id%3D%220%22%2F%3E%3CmxCell%20id%3D%221%22%20parent%3D%220%22%2F%3E%3CmxCell%20id%3D%222%22%20value%3D%22%22%20style%3D%22html%3D1%3BverticalLabelPosition%3Dbottom%3Balign%3Dcenter%3BlabelBackgroundColor%3D%23ffffff%3BverticalAlign%3Dtop%3BstrokeWidth%3D2%3BstrokeColor%3D%236c8ebf%3Bshadow%3D0%3Bdashed%3D0%3Bshape%3Dmxgraph.ios7.icons.data%3BfillColor%3D%23dae8fc%3B%22%20vertex%3D%221%22%20parent%3D%221%22%3E%3CmxGeometry%20x%3D%22353%22%20y%3D%22279.65%22%20width%3D%2224%22%20height%3D%2229.099999999999998%22%20as%3D%22geometry%22%2F%3E%3C%2FmxCell%3E%3C%2Froot%3E%3C%2FmxGraphModel%3E&lt;/span&gt;Data" style="text;html=1;align=center;verticalAlign=middle;whiteSpace=wrap;rounded=0;" parent="1" vertex="1">
          <mxGeometry x="220" y="260" width="60" height="30" as="geometry" />
        </mxCell>
        <mxCell id="08p3rzBNdtEZxl52uitY-40" value="Business- Ready Data&lt;div&gt;&lt;br&gt;&lt;/div&gt;" style="text;html=1;align=center;verticalAlign=middle;whiteSpace=wrap;rounded=0;" parent="1" vertex="1">
          <mxGeometry x="515" y="270" width="60" height="30" as="geometry" />
        </mxCell>
        <mxCell id="08p3rzBNdtEZxl52uitY-41" value="Cleaned, Standardized data" style="text;html=1;align=center;verticalAlign=middle;whiteSpace=wrap;rounded=0;fontSize=12;" parent="1" vertex="1">
          <mxGeometry x="370" y="260" width="60" height="30" as="geometry" />
        </mxCell>
        <mxCell id="08p3rzBNdtEZxl52uitY-44" value="" style="endArrow=none;html=1;rounded=0;strokeColor=#666666;fillColor=#f5f5f5;" parent="1" edge="1">
          <mxGeometry width="50" height="50" relative="1" as="geometry">
            <mxPoint x="365" y="305.75" as="sourcePoint" />
            <mxPoint x="430" y="305.75" as="targetPoint" />
            <Array as="points" />
          </mxGeometry>
        </mxCell>
        <mxCell id="08p3rzBNdtEZxl52uitY-45" value="" style="endArrow=none;html=1;rounded=0;strokeColor=#d6b656;fillColor=#fff2cc;" parent="1" edge="1">
          <mxGeometry width="50" height="50" relative="1" as="geometry">
            <mxPoint x="510" y="305.13" as="sourcePoint" />
            <mxPoint x="575" y="305.13" as="targetPoint" />
            <Array as="points" />
          </mxGeometry>
        </mxCell>
        <mxCell id="08p3rzBNdtEZxl52uitY-47" value="" style="endArrow=none;html=1;rounded=0;strokeColor=#d79b00;fillColor=#ffe6cc;" parent="1" edge="1">
          <mxGeometry width="50" height="50" relative="1" as="geometry">
            <mxPoint x="217.5" y="305.75" as="sourcePoint" />
            <mxPoint x="282.5" y="305.75" as="targetPoint" />
            <Array as="points" />
          </mxGeometry>
        </mxCell>
        <mxCell id="08p3rzBNdtEZxl52uitY-48" value="&lt;b&gt;Object Type&lt;/b&gt; : Views&lt;div&gt;&lt;br&gt;&lt;div style=&quot;&quot;&gt;No&lt;b&gt; Load&amp;nbsp; &amp;nbsp;&lt;/b&gt;&lt;/div&gt;&lt;div style=&quot;&quot;&gt;&lt;span style=&quot;background-color: transparent; color: light-dark(rgb(0, 0, 0), rgb(255, 255, 255));&quot;&gt;&amp;nbsp; &amp;nbsp; &amp;nbsp;&amp;nbsp;&lt;/span&gt;&lt;/div&gt;&lt;div style=&quot;&quot;&gt;&lt;span style=&quot;background-color: transparent; color: light-dark(rgb(0, 0, 0), rgb(255, 255, 255));&quot;&gt;&lt;b&gt;Transformations:&amp;nbsp;&lt;/b&gt;&lt;/span&gt;&lt;/div&gt;&lt;div style=&quot;&quot;&gt;&lt;span style=&quot;background-color: transparent; color: light-dark(rgb(0, 0, 0), rgb(255, 255, 255));&quot;&gt;&amp;nbsp; &amp;nbsp; &amp;nbsp; Data integration&lt;/span&gt;&lt;span style=&quot;background-color: transparent; color: light-dark(rgb(0, 0, 0), rgb(255, 255, 255)); white-space: pre;&quot;&gt;&#x9;&lt;/span&gt;&lt;/div&gt;&lt;div style=&quot;&quot;&gt;&amp;nbsp; &amp;nbsp; &amp;nbsp; Aggrgations&lt;/div&gt;&lt;div style=&quot;&quot;&gt;&amp;nbsp; &amp;nbsp; &amp;nbsp; Business Logics&lt;/div&gt;&lt;div style=&quot;&quot;&gt;&lt;br&gt;&lt;/div&gt;&lt;/div&gt;&lt;div style=&quot;&quot;&gt;&lt;b&gt;Data Model:&amp;nbsp;&lt;/b&gt;&lt;/div&gt;&lt;div style=&quot;&quot;&gt;&lt;span style=&quot;font-weight: bold; white-space: pre;&quot;&gt;&#x9;&lt;/span&gt;Start Schema&lt;br&gt;&lt;/div&gt;&lt;div style=&quot;&quot;&gt;&lt;span style=&quot;white-space: pre;&quot;&gt;&#x9;&lt;/span&gt;Flat Table&lt;br&gt;&lt;/div&gt;&lt;div style=&quot;&quot;&gt;&lt;span style=&quot;white-space: pre;&quot;&gt;&#x9;&lt;/span&gt;Aggregate&amp;nbsp; &amp;nbsp; &amp;nbsp; &amp;nbsp; &amp;nbsp; &amp;nbsp; &lt;span style=&quot;white-space: pre;&quot;&gt;&#x9;&lt;/span&gt;Table&amp;nbsp;&lt;br&gt;&lt;/div&gt;" style="text;html=1;align=left;verticalAlign=middle;whiteSpace=wrap;rounded=0;fontSize=10;" parent="1" vertex="1">
          <mxGeometry x="495" y="380" width="100" height="30" as="geometry" />
        </mxCell>
        <mxCell id="08p3rzBNdtEZxl52uitY-54" value="&lt;b&gt;Object Type&lt;/b&gt; : Table&lt;div&gt;&lt;br&gt;&lt;div style=&quot;&quot;&gt;&lt;b&gt;Load :&amp;nbsp;&lt;/b&gt;&lt;/div&gt;&lt;div style=&quot;&quot;&gt;&lt;span style=&quot;background-color: transparent; color: light-dark(rgb(0, 0, 0), rgb(255, 255, 255));&quot;&gt;&amp;nbsp; &amp;nbsp; &amp;nbsp; Batch Processing.&lt;/span&gt;&lt;/div&gt;&lt;div style=&quot;&quot;&gt;&lt;b style=&quot;background-color: transparent; color: light-dark(rgb(0, 0, 0), rgb(255, 255, 255));&quot;&gt;&amp;nbsp; &amp;nbsp; &amp;nbsp; &lt;/b&gt;&lt;span style=&quot;background-color: transparent; color: light-dark(rgb(0, 0, 0), rgb(255, 255, 255));&quot;&gt;Full Load(Trun&amp;nbsp; &amp;nbsp; &amp;nbsp; &amp;nbsp; &amp;nbsp; &amp;nbsp; &amp;amp; Insert)&lt;/span&gt;&lt;/div&gt;&lt;div style=&quot;&quot;&gt;&lt;span style=&quot;background-color: transparent; color: light-dark(rgb(0, 0, 0), rgb(255, 255, 255));&quot;&gt;&lt;br&gt;&lt;/span&gt;&lt;/div&gt;&lt;div style=&quot;&quot;&gt;&lt;span style=&quot;background-color: transparent; color: light-dark(rgb(0, 0, 0), rgb(255, 255, 255));&quot;&gt;No &lt;b&gt;Transformations&lt;/b&gt;&lt;/span&gt;&lt;/div&gt;&lt;div style=&quot;&quot;&gt;&lt;span style=&quot;background-color: transparent; color: light-dark(rgb(0, 0, 0), rgb(255, 255, 255));&quot;&gt;&lt;br&gt;&lt;/span&gt;&lt;/div&gt;&lt;div style=&quot;&quot;&gt;&lt;b style=&quot;background-color: transparent; color: light-dark(rgb(0, 0, 0), rgb(255, 255, 255));&quot;&gt;Data Model: &lt;/b&gt;&lt;span style=&quot;background-color: transparent; color: light-dark(rgb(0, 0, 0), rgb(255, 255, 255));&quot;&gt;None&lt;/span&gt;&lt;b style=&quot;background-color: transparent; color: light-dark(rgb(0, 0, 0), rgb(255, 255, 255));&quot;&gt; &lt;/b&gt;&lt;span style=&quot;background-color: transparent; color: light-dark(rgb(0, 0, 0), rgb(255, 255, 255));&quot;&gt;(as-is)&lt;/span&gt;&lt;br&gt;&lt;/div&gt;&lt;/div&gt;" style="text;html=1;align=left;verticalAlign=middle;whiteSpace=wrap;rounded=0;fontSize=10;" parent="1" vertex="1">
          <mxGeometry x="200" y="380" width="100" height="30" as="geometry" />
        </mxCell>
        <mxCell id="08p3rzBNdtEZxl52uitY-56" value="&lt;div style=&quot;text-align: left;&quot;&gt;&lt;b style=&quot;background-color: transparent; color: light-dark(rgb(0, 0, 0), rgb(255, 255, 255));&quot;&gt;Object Type&lt;/b&gt;&lt;span style=&quot;background-color: transparent; color: light-dark(rgb(0, 0, 0), rgb(255, 255, 255));&quot;&gt;: Tables&lt;/span&gt;&lt;/div&gt;&lt;div&gt;&lt;div style=&quot;text-align: left;&quot;&gt;&lt;b&gt;Load:&amp;nbsp;&lt;/b&gt;&lt;/div&gt;&lt;div style=&quot;text-align: left;&quot;&gt;&lt;span style=&quot;background-color: transparent; color: light-dark(rgb(0, 0, 0), rgb(255, 255, 255)); text-align: center;&quot;&gt;&lt;b&gt;&amp;nbsp; &amp;nbsp;&lt;/b&gt;Full Load&lt;/span&gt;&lt;/div&gt;&lt;/div&gt;&lt;div&gt;Batch Processing&lt;/div&gt;&lt;div&gt;Truncate &amp;amp; Insert&lt;/div&gt;&lt;div style=&quot;text-align: left;&quot;&gt;&lt;b&gt;Transformations :&lt;/b&gt;&lt;/div&gt;&lt;div style=&quot;text-align: left;&quot;&gt;&lt;b&gt;&amp;nbsp; &amp;nbsp; &lt;/b&gt;&amp;nbsp;Data Cleansing&lt;/div&gt;&lt;div style=&quot;text-align: left;&quot;&gt;&amp;nbsp; &amp;nbsp; &amp;nbsp;Data Standardization&lt;/div&gt;&lt;div style=&quot;text-align: left;&quot;&gt;&amp;nbsp; &amp;nbsp; &amp;nbsp;Data Normalization&lt;/div&gt;&lt;div style=&quot;text-align: left;&quot;&gt;&amp;nbsp; &amp;nbsp; &amp;nbsp;Derived Columns&lt;/div&gt;&lt;div style=&quot;text-align: left;&quot;&gt;&amp;nbsp; &amp;nbsp; &amp;nbsp;Data Enrichments&lt;/div&gt;&lt;div style=&quot;text-align: left;&quot;&gt;&lt;b&gt;Data Mode&lt;/b&gt; : None(as-is)&lt;/div&gt;" style="text;html=1;align=center;verticalAlign=middle;whiteSpace=wrap;rounded=0;fontSize=10;" parent="1" vertex="1">
          <mxGeometry x="340" y="340" width="120" height="110" as="geometry" />
        </mxCell>
        <mxCell id="08p3rzBNdtEZxl52uitY-57" value="&amp;nbsp; &amp;nbsp; &amp;nbsp; &amp;nbsp; &amp;nbsp; &amp;nbsp; &amp;nbsp; &amp;nbsp;BI &amp;amp; Reporting" style="image;aspect=fixed;html=1;points=[];align=center;fontSize=12;image=img/lib/azure2/power_platform/PowerBI.svg;" parent="1" vertex="1">
          <mxGeometry x="704" y="202" width="36" height="48" as="geometry" />
        </mxCell>
        <mxCell id="08p3rzBNdtEZxl52uitY-59" value="" style="verticalLabelPosition=bottom;aspect=fixed;html=1;shape=mxgraph.salesforce.analytics;" parent="1" vertex="1">
          <mxGeometry x="750" y="196.05" width="44.85" height="43.95" as="geometry" />
        </mxCell>
        <mxCell id="08p3rzBNdtEZxl52uitY-61" value="Ad-Hoc&lt;div&gt;SQL Queries&lt;/div&gt;" style="image;aspect=fixed;html=1;points=[];align=center;fontSize=12;image=img/lib/azure2/ai_machine_learning/Anomaly_Detector.svg;" parent="1" vertex="1">
          <mxGeometry x="715.63" y="290" width="40" height="40" as="geometry" />
        </mxCell>
        <mxCell id="08p3rzBNdtEZxl52uitY-62" value="Machine Learning" style="sketch=0;outlineConnect=0;fontColor=#232F3E;gradientColor=none;fillColor=#01A88D;strokeColor=none;dashed=0;verticalLabelPosition=bottom;verticalAlign=top;align=center;html=1;fontSize=12;fontStyle=0;aspect=fixed;pointerEvents=1;shape=mxgraph.aws4.sagemaker_model;" parent="1" vertex="1">
          <mxGeometry x="715.63" y="376" width="54" height="54" as="geometry" />
        </mxCell>
        <mxCell id="08p3rzBNdtEZxl52uitY-63" value="" style="sketch=0;pointerEvents=1;shadow=0;dashed=0;html=1;strokeColor=none;fillColor=#005F4B;labelPosition=center;verticalLabelPosition=bottom;verticalAlign=top;align=center;outlineConnect=0;shape=mxgraph.veeam2.sql_server;" parent="1" vertex="1">
          <mxGeometry x="180" y="120" width="35" height="28" as="geometry" />
        </mxCell>
      </root>
    </mxGraphModel>
  </diagram>
  <diagram id="UHYS2RVGrCc13hNujoTO" name="Page-2">
    <mxGraphModel dx="794" dy="557" grid="1" gridSize="10" guides="1" tooltips="1" connect="1" arrows="1" fold="1" page="1" pageScale="1" pageWidth="850" pageHeight="1100" background="#ffffff" math="0" shadow="0">
      <root>
        <mxCell id="0" />
        <mxCell id="1" parent="0" />
        <mxCell id="TlPF17WRxqJsre8iAlvS-1" value="Data Flow Diagram" style="text;html=1;align=center;verticalAlign=middle;whiteSpace=wrap;rounded=0;fontStyle=1;fontSize=40;fillColor=none;gradientColor=default;" vertex="1" parent="1">
          <mxGeometry x="20" y="20" width="430" height="30" as="geometry" />
        </mxCell>
        <mxCell id="TlPF17WRxqJsre8iAlvS-2" value="" style="rounded=1;whiteSpace=wrap;html=1;gradientColor=default;fillColor=none;dashed=1;" vertex="1" parent="1">
          <mxGeometry x="70" y="170" width="120" height="340" as="geometry" />
        </mxCell>
        <mxCell id="TlPF17WRxqJsre8iAlvS-3" value="Sources" style="text;html=1;align=center;verticalAlign=middle;whiteSpace=wrap;rounded=0;fontSize=16;fontStyle=1" vertex="1" parent="1">
          <mxGeometry x="100" y="150" width="60" height="30" as="geometry" />
        </mxCell>
        <mxCell id="TlPF17WRxqJsre8iAlvS-24" style="edgeStyle=orthogonalEdgeStyle;rounded=0;orthogonalLoop=1;jettySize=auto;html=1;entryX=0;entryY=0.25;entryDx=0;entryDy=0;" edge="1" parent="1" source="TlPF17WRxqJsre8iAlvS-4" target="TlPF17WRxqJsre8iAlvS-11">
          <mxGeometry relative="1" as="geometry" />
        </mxCell>
        <mxCell id="TlPF17WRxqJsre8iAlvS-4" value="CRM" style="image;aspect=fixed;html=1;points=[];align=center;fontSize=12;image=img/lib/azure2/general/Folder_Blank.svg;" vertex="1" parent="1">
          <mxGeometry x="105.36" y="240" width="44.64" height="36.23" as="geometry" />
        </mxCell>
        <mxCell id="TlPF17WRxqJsre8iAlvS-18" value="" style="edgeStyle=orthogonalEdgeStyle;rounded=0;orthogonalLoop=1;jettySize=auto;html=1;" edge="1" parent="1" source="TlPF17WRxqJsre8iAlvS-5" target="TlPF17WRxqJsre8iAlvS-14">
          <mxGeometry relative="1" as="geometry" />
        </mxCell>
        <mxCell id="TlPF17WRxqJsre8iAlvS-21" style="edgeStyle=orthogonalEdgeStyle;rounded=0;orthogonalLoop=1;jettySize=auto;html=1;entryX=0;entryY=0.5;entryDx=0;entryDy=0;" edge="1" parent="1" source="TlPF17WRxqJsre8iAlvS-5" target="TlPF17WRxqJsre8iAlvS-13">
          <mxGeometry relative="1" as="geometry" />
        </mxCell>
        <mxCell id="TlPF17WRxqJsre8iAlvS-22" style="edgeStyle=orthogonalEdgeStyle;rounded=0;orthogonalLoop=1;jettySize=auto;html=1;entryX=0;entryY=0.5;entryDx=0;entryDy=0;" edge="1" parent="1" source="TlPF17WRxqJsre8iAlvS-5" target="TlPF17WRxqJsre8iAlvS-15">
          <mxGeometry relative="1" as="geometry" />
        </mxCell>
        <mxCell id="TlPF17WRxqJsre8iAlvS-5" value="ERP" style="image;aspect=fixed;html=1;points=[];align=center;fontSize=12;image=img/lib/azure2/general/Folder_Blank.svg;" vertex="1" parent="1">
          <mxGeometry x="105.36" y="350" width="49.29" height="40" as="geometry" />
        </mxCell>
        <mxCell id="TlPF17WRxqJsre8iAlvS-7" value="" style="rounded=1;whiteSpace=wrap;html=1;fillColor=none;dashed=1;strokeColor=#FF9933;gradientColor=default;" vertex="1" parent="1">
          <mxGeometry x="250" y="180" width="120" height="330" as="geometry" />
        </mxCell>
        <mxCell id="TlPF17WRxqJsre8iAlvS-9" value="Bronze Layer" style="rounded=1;whiteSpace=wrap;html=1;fillColor=#ffe6cc;strokeColor=#d79b00;" vertex="1" parent="1">
          <mxGeometry x="260" y="140" width="110" height="30" as="geometry" />
        </mxCell>
        <mxCell id="TlPF17WRxqJsre8iAlvS-37" style="edgeStyle=orthogonalEdgeStyle;rounded=0;orthogonalLoop=1;jettySize=auto;html=1;entryX=0;entryY=0.5;entryDx=0;entryDy=0;" edge="1" parent="1" source="TlPF17WRxqJsre8iAlvS-10" target="TlPF17WRxqJsre8iAlvS-31">
          <mxGeometry relative="1" as="geometry" />
        </mxCell>
        <mxCell id="TlPF17WRxqJsre8iAlvS-10" value="crm_prd_info" style="rounded=1;whiteSpace=wrap;html=1;fillColor=#ffe6cc;strokeColor=#d79b00;" vertex="1" parent="1">
          <mxGeometry x="260" y="300" width="100" height="30" as="geometry" />
        </mxCell>
        <mxCell id="TlPF17WRxqJsre8iAlvS-35" style="edgeStyle=orthogonalEdgeStyle;rounded=0;orthogonalLoop=1;jettySize=auto;html=1;entryX=0;entryY=0.5;entryDx=0;entryDy=0;" edge="1" parent="1" source="TlPF17WRxqJsre8iAlvS-11" target="TlPF17WRxqJsre8iAlvS-30">
          <mxGeometry relative="1" as="geometry" />
        </mxCell>
        <mxCell id="TlPF17WRxqJsre8iAlvS-11" value="crm_sales_details" style="rounded=1;whiteSpace=wrap;html=1;fillColor=#ffe6cc;strokeColor=#d79b00;" vertex="1" parent="1">
          <mxGeometry x="260" y="200" width="100" height="30" as="geometry" />
        </mxCell>
        <mxCell id="TlPF17WRxqJsre8iAlvS-12" value="crm_cust_info" style="rounded=1;whiteSpace=wrap;html=1;fillColor=#ffe6cc;strokeColor=#d79b00;" vertex="1" parent="1">
          <mxGeometry x="260" y="250" width="100" height="30" as="geometry" />
        </mxCell>
        <mxCell id="TlPF17WRxqJsre8iAlvS-13" value="erp_loc_a101" style="rounded=1;whiteSpace=wrap;html=1;fillColor=#ffe6cc;strokeColor=#d79b00;" vertex="1" parent="1">
          <mxGeometry x="260" y="410" width="100" height="30" as="geometry" />
        </mxCell>
        <mxCell id="TlPF17WRxqJsre8iAlvS-14" value="erp_cust_az12" style="rounded=1;whiteSpace=wrap;html=1;fillColor=#ffe6cc;strokeColor=#d79b00;" vertex="1" parent="1">
          <mxGeometry x="260" y="355" width="100" height="30" as="geometry" />
        </mxCell>
        <mxCell id="TlPF17WRxqJsre8iAlvS-40" style="edgeStyle=orthogonalEdgeStyle;rounded=0;orthogonalLoop=1;jettySize=auto;html=1;" edge="1" parent="1" source="TlPF17WRxqJsre8iAlvS-15" target="TlPF17WRxqJsre8iAlvS-34">
          <mxGeometry relative="1" as="geometry" />
        </mxCell>
        <mxCell id="TlPF17WRxqJsre8iAlvS-15" value="erp_px_cat_g1v2" style="rounded=1;whiteSpace=wrap;html=1;fillColor=#ffe6cc;strokeColor=#d79b00;" vertex="1" parent="1">
          <mxGeometry x="260" y="460" width="100" height="30" as="geometry" />
        </mxCell>
        <mxCell id="TlPF17WRxqJsre8iAlvS-17" style="edgeStyle=orthogonalEdgeStyle;rounded=0;orthogonalLoop=1;jettySize=auto;html=1;entryX=0.067;entryY=0.238;entryDx=0;entryDy=0;entryPerimeter=0;" edge="1" parent="1" source="TlPF17WRxqJsre8iAlvS-4" target="TlPF17WRxqJsre8iAlvS-7">
          <mxGeometry relative="1" as="geometry" />
        </mxCell>
        <mxCell id="TlPF17WRxqJsre8iAlvS-25" style="edgeStyle=orthogonalEdgeStyle;rounded=0;orthogonalLoop=1;jettySize=auto;html=1;entryX=0.087;entryY=0.556;entryDx=0;entryDy=0;entryPerimeter=0;" edge="1" parent="1" source="TlPF17WRxqJsre8iAlvS-4" target="TlPF17WRxqJsre8iAlvS-10">
          <mxGeometry relative="1" as="geometry">
            <Array as="points">
              <mxPoint x="210" y="258" />
              <mxPoint x="210" y="317" />
            </Array>
          </mxGeometry>
        </mxCell>
        <mxCell id="TlPF17WRxqJsre8iAlvS-26" value="Silver Layer" style="rounded=1;whiteSpace=wrap;html=1;fillColor=#f5f5f5;strokeColor=#666666;fontColor=#333333;" vertex="1" parent="1">
          <mxGeometry x="400" y="140" width="110" height="30" as="geometry" />
        </mxCell>
        <mxCell id="TlPF17WRxqJsre8iAlvS-27" value="" style="rounded=1;whiteSpace=wrap;html=1;fillColor=none;dashed=1;strokeColor=#909090;gradientColor=default;" vertex="1" parent="1">
          <mxGeometry x="400" y="180" width="120" height="330" as="geometry" />
        </mxCell>
        <mxCell id="TlPF17WRxqJsre8iAlvS-28" value="crm_cust_info" style="rounded=1;whiteSpace=wrap;html=1;fillColor=#f5f5f5;strokeColor=#666666;fontColor=#333333;" vertex="1" parent="1">
          <mxGeometry x="410" y="250" width="100" height="30" as="geometry" />
        </mxCell>
        <mxCell id="TlPF17WRxqJsre8iAlvS-30" value="crm_sales_details" style="rounded=1;whiteSpace=wrap;html=1;fillColor=#f5f5f5;strokeColor=#666666;fontColor=#333333;" vertex="1" parent="1">
          <mxGeometry x="410" y="200" width="100" height="30" as="geometry" />
        </mxCell>
        <mxCell id="TlPF17WRxqJsre8iAlvS-31" value="crm_prd_info" style="rounded=1;whiteSpace=wrap;html=1;fillColor=#f5f5f5;strokeColor=#666666;fontColor=#333333;" vertex="1" parent="1">
          <mxGeometry x="410" y="300" width="100" height="30" as="geometry" />
        </mxCell>
        <mxCell id="TlPF17WRxqJsre8iAlvS-32" value="erp_cust_az12" style="rounded=1;whiteSpace=wrap;html=1;fillColor=#f5f5f5;strokeColor=#666666;fontColor=#333333;" vertex="1" parent="1">
          <mxGeometry x="410" y="350" width="100" height="30" as="geometry" />
        </mxCell>
        <mxCell id="TlPF17WRxqJsre8iAlvS-33" value="erp_loc_a101" style="rounded=1;whiteSpace=wrap;html=1;fillColor=#f5f5f5;strokeColor=#666666;fontColor=#333333;" vertex="1" parent="1">
          <mxGeometry x="410" y="410" width="100" height="30" as="geometry" />
        </mxCell>
        <mxCell id="TlPF17WRxqJsre8iAlvS-34" value="erp_px_cat_g1v2" style="rounded=1;whiteSpace=wrap;html=1;fillColor=#f5f5f5;strokeColor=#666666;fontColor=#333333;" vertex="1" parent="1">
          <mxGeometry x="410" y="460" width="100" height="30" as="geometry" />
        </mxCell>
        <mxCell id="TlPF17WRxqJsre8iAlvS-36" style="edgeStyle=orthogonalEdgeStyle;rounded=0;orthogonalLoop=1;jettySize=auto;html=1;entryX=0.08;entryY=0.578;entryDx=0;entryDy=0;entryPerimeter=0;" edge="1" parent="1" source="TlPF17WRxqJsre8iAlvS-12" target="TlPF17WRxqJsre8iAlvS-28">
          <mxGeometry relative="1" as="geometry" />
        </mxCell>
        <mxCell id="TlPF17WRxqJsre8iAlvS-38" style="edgeStyle=orthogonalEdgeStyle;rounded=0;orthogonalLoop=1;jettySize=auto;html=1;entryX=0.087;entryY=0.644;entryDx=0;entryDy=0;entryPerimeter=0;" edge="1" parent="1" source="TlPF17WRxqJsre8iAlvS-14" target="TlPF17WRxqJsre8iAlvS-32">
          <mxGeometry relative="1" as="geometry" />
        </mxCell>
        <mxCell id="TlPF17WRxqJsre8iAlvS-39" style="edgeStyle=orthogonalEdgeStyle;rounded=0;orthogonalLoop=1;jettySize=auto;html=1;entryX=0.08;entryY=0.578;entryDx=0;entryDy=0;entryPerimeter=0;" edge="1" parent="1" source="TlPF17WRxqJsre8iAlvS-13" target="TlPF17WRxqJsre8iAlvS-33">
          <mxGeometry relative="1" as="geometry" />
        </mxCell>
        <mxCell id="TlPF17WRxqJsre8iAlvS-42" value="Gold Layer" style="rounded=1;whiteSpace=wrap;html=1;fillColor=#fff2cc;strokeColor=#d6b656;" vertex="1" parent="1">
          <mxGeometry x="575" y="140" width="110" height="30" as="geometry" />
        </mxCell>
        <mxCell id="TlPF17WRxqJsre8iAlvS-43" value="" style="rounded=1;whiteSpace=wrap;html=1;fillColor=none;dashed=1;strokeColor=#909090;gradientColor=default;" vertex="1" parent="1">
          <mxGeometry x="570" y="175" width="120" height="330" as="geometry" />
        </mxCell>
        <mxCell id="TlPF17WRxqJsre8iAlvS-44" value="dim_customers" style="rounded=1;whiteSpace=wrap;html=1;fillColor=#fff2cc;strokeColor=#d6b656;" vertex="1" parent="1">
          <mxGeometry x="580" y="310" width="100" height="30" as="geometry" />
        </mxCell>
        <mxCell id="TlPF17WRxqJsre8iAlvS-45" value="fact_sales" style="rounded=1;whiteSpace=wrap;html=1;fillColor=#fff2cc;strokeColor=#d6b656;" vertex="1" parent="1">
          <mxGeometry x="580" y="243.12" width="100" height="30" as="geometry" />
        </mxCell>
        <mxCell id="TlPF17WRxqJsre8iAlvS-46" value="dim_products" style="rounded=1;whiteSpace=wrap;html=1;fillColor=#fff2cc;strokeColor=#d6b656;" vertex="1" parent="1">
          <mxGeometry x="585" y="390" width="100" height="30" as="geometry" />
        </mxCell>
        <mxCell id="TlPF17WRxqJsre8iAlvS-59" value="" style="endArrow=classic;html=1;rounded=0;entryX=0;entryY=0.25;entryDx=0;entryDy=0;" edge="1" parent="1" target="TlPF17WRxqJsre8iAlvS-45">
          <mxGeometry width="50" height="50" relative="1" as="geometry">
            <mxPoint x="510" y="220" as="sourcePoint" />
            <mxPoint x="570" y="80" as="targetPoint" />
          </mxGeometry>
        </mxCell>
        <mxCell id="TlPF17WRxqJsre8iAlvS-60" value="" style="endArrow=classic;html=1;rounded=0;entryX=0;entryY=0.5;entryDx=0;entryDy=0;" edge="1" parent="1" target="TlPF17WRxqJsre8iAlvS-44">
          <mxGeometry width="50" height="50" relative="1" as="geometry">
            <mxPoint x="515" y="260" as="sourcePoint" />
            <mxPoint x="585" y="291" as="targetPoint" />
          </mxGeometry>
        </mxCell>
        <mxCell id="TlPF17WRxqJsre8iAlvS-61" value="" style="endArrow=classic;html=1;rounded=0;exitX=1;exitY=0.5;exitDx=0;exitDy=0;" edge="1" parent="1" source="TlPF17WRxqJsre8iAlvS-32">
          <mxGeometry width="50" height="50" relative="1" as="geometry">
            <mxPoint x="520" y="380" as="sourcePoint" />
            <mxPoint x="580" y="330" as="targetPoint" />
          </mxGeometry>
        </mxCell>
        <mxCell id="TlPF17WRxqJsre8iAlvS-62" value="" style="endArrow=classic;html=1;rounded=0;entryX=0;entryY=0.5;entryDx=0;entryDy=0;" edge="1" parent="1" target="TlPF17WRxqJsre8iAlvS-44">
          <mxGeometry width="50" height="50" relative="1" as="geometry">
            <mxPoint x="510" y="430" as="sourcePoint" />
            <mxPoint x="560" y="380" as="targetPoint" />
          </mxGeometry>
        </mxCell>
        <mxCell id="TlPF17WRxqJsre8iAlvS-63" value="" style="endArrow=classic;html=1;rounded=0;exitX=1;exitY=0.5;exitDx=0;exitDy=0;entryX=0;entryY=0.5;entryDx=0;entryDy=0;" edge="1" parent="1" source="TlPF17WRxqJsre8iAlvS-31" target="TlPF17WRxqJsre8iAlvS-46">
          <mxGeometry width="50" height="50" relative="1" as="geometry">
            <mxPoint x="520" y="330" as="sourcePoint" />
            <mxPoint x="570" y="280" as="targetPoint" />
          </mxGeometry>
        </mxCell>
        <mxCell id="TlPF17WRxqJsre8iAlvS-64" value="" style="endArrow=classic;html=1;rounded=0;exitX=1;exitY=0.5;exitDx=0;exitDy=0;entryX=0;entryY=0.5;entryDx=0;entryDy=0;" edge="1" parent="1" source="TlPF17WRxqJsre8iAlvS-34" target="TlPF17WRxqJsre8iAlvS-46">
          <mxGeometry width="50" height="50" relative="1" as="geometry">
            <mxPoint x="530" y="460" as="sourcePoint" />
            <mxPoint x="580" y="410" as="targetPoint" />
          </mxGeometry>
        </mxCell>
      </root>
    </mxGraphModel>
  </diagram>
</mxfile>
